<svg width="35" height="35" viewBox="0 0 35 35" fill="none" xmlns="http://www.w3.org/2000/svg">
<path d="M9.1412 7.15985C9.38564 7.15985 9.5812 7.23318 9.72786 7.37984L10.6079 8.25984L11.4879 7.37984C11.6345 7.23318 11.8056 7.15985 12.0012 7.15985C12.1968 7.15985 12.3679 7.23318 12.5145 7.37984L13.3945 8.25984L14.2745 7.37984C14.4212 7.23318 14.5801 7.15985 14.7512 7.15985C14.9223 7.15985 15.0812 7.23318 15.2279 7.37984L16.1079 8.25984L16.9879 7.37984C17.1345 7.23318 17.3056 7.15985 17.5012 7.15985C17.6968 7.15985 17.8679 7.23318 18.0145 7.37984L18.8945 8.25984L19.7745 7.37984C19.9212 7.23318 20.0801 7.15985 20.2512 7.15985C20.4223 7.15985 20.5812 7.23318 20.7279 7.37984L21.6079 8.25984L22.4879 7.37984C22.6345 7.23318 22.8056 7.15985 23.0012 7.15985C23.1968 7.15985 23.3679 7.23318 23.5145 7.37984L24.3945 8.25984L25.2745 7.37984C25.4212 7.23318 25.6168 7.17207 25.8612 7.19651C26.1056 7.22095 26.2768 7.3554 26.3745 7.59984L27.0345 8.91984C27.0834 9.01762 27.1079 9.1154 27.1079 9.21318V25.7132C27.1079 25.8598 27.0834 25.9821 27.0345 26.0798L26.3745 27.3998C26.2768 27.6443 26.1056 27.7787 25.8612 27.8032C25.6168 27.8276 25.4212 27.7665 25.2745 27.6198L24.3945 26.7398L23.5145 27.6198C23.3679 27.7665 23.1968 27.8398 23.0012 27.8398C22.8056 27.8398 22.6345 27.7665 22.4879 27.6198L21.6079 26.7398L20.7279 27.6198C20.5812 27.7665 20.4223 27.8398 20.2512 27.8398C20.0801 27.8398 19.9212 27.7665 19.7745 27.6198L18.8945 26.7398L18.0145 27.6198C17.8679 27.7665 17.6968 27.8398 17.5012 27.8398C17.3056 27.8398 17.1345 27.7665 16.9879 27.6198L16.1079 26.7398L15.2279 27.6198C15.0812 27.7665 14.9223 27.8398 14.7512 27.8398C14.5801 27.8398 14.4212 27.7665 14.2745 27.6198L13.3945 26.7398L12.5145 27.6198C12.3679 27.7665 12.1968 27.8398 12.0012 27.8398C11.8056 27.8398 11.6345 27.7665 11.4879 27.6198L10.6079 26.7398L9.72786 27.6198C9.5812 27.7665 9.38564 27.8276 9.1412 27.8032C8.89675 27.7787 8.72564 27.6443 8.62786 27.3998L7.96786 26.0798C7.91898 25.9821 7.89453 25.8598 7.89453 25.7132V9.21318C7.89453 9.1154 7.91898 9.01762 7.96786 8.91984L8.62786 7.59984C8.72564 7.3554 8.89675 7.20873 9.1412 7.15985ZM9.43453 9.06651L9.28786 9.43318V25.5665L9.43453 25.9332L10.1679 25.2732C10.2656 25.1265 10.4123 25.0532 10.6079 25.0532C10.8034 25.0532 10.9745 25.1265 11.1212 25.2732L12.0012 26.1532L12.8812 25.2732C13.0279 25.1265 13.199 25.0532 13.3945 25.0532C13.5901 25.0532 13.7368 25.1265 13.8345 25.2732L14.7879 26.1532L15.6679 25.2732C15.7656 25.1265 15.9123 25.0532 16.1079 25.0532C16.3034 25.0532 16.4745 25.1265 16.6212 25.2732L17.5012 26.1532L18.3812 25.2732C18.5279 25.1265 18.699 25.0532 18.8945 25.0532C19.0901 25.0532 19.2368 25.1265 19.3345 25.2732L20.2879 26.1532L21.1679 25.2732C21.2656 25.1265 21.4123 25.0532 21.6079 25.0532C21.8034 25.0532 21.9745 25.1265 22.1212 25.2732L23.0012 26.1532L23.8812 25.2732C24.0279 25.1265 24.199 25.0532 24.3945 25.0532C24.5901 25.0532 24.7368 25.1265 24.8345 25.2732L25.5679 25.9332L25.7879 25.5665V9.43318L25.5679 9.06651L24.8345 9.72651C24.7368 9.87318 24.5901 9.94651 24.3945 9.94651C24.199 9.94651 24.0279 9.87318 23.8812 9.72651L23.0012 8.84651L22.1212 9.72651C21.9745 9.87318 21.8034 9.94651 21.6079 9.94651C21.4123 9.94651 21.2656 9.87318 21.1679 9.72651L20.2879 8.84651L19.3345 9.72651C19.2368 9.87318 19.0901 9.94651 18.8945 9.94651C18.699 9.94651 18.5279 9.87318 18.3812 9.72651L17.5012 8.84651L16.6212 9.72651C16.4745 9.87318 16.3034 9.94651 16.1079 9.94651C15.9123 9.94651 15.7656 9.87318 15.6679 9.72651L14.7879 8.84651L13.8345 9.72651C13.7368 9.87318 13.5901 9.94651 13.3945 9.94651C13.199 9.94651 13.0279 9.87318 12.8812 9.72651L12.0012 8.84651L11.1212 9.72651C10.9745 9.87318 10.8034 9.94651 10.6079 9.94651C10.4123 9.94651 10.2656 9.87318 10.1679 9.72651L9.43453 9.06651ZM10.6079 12.6598C10.6079 12.4643 10.6812 12.3054 10.8279 12.1832C10.9745 12.061 11.1456 11.9998 11.3412 11.9998H19.5545C19.7501 11.9998 19.9212 12.061 20.0679 12.1832C20.2145 12.3054 20.2879 12.4643 20.2879 12.6598C20.2879 12.8554 20.2145 13.0265 20.0679 13.1732C19.9212 13.3198 19.7501 13.3932 19.5545 13.3932H11.3412C11.1456 13.3932 10.9745 13.3198 10.8279 13.1732C10.6812 13.0265 10.6079 12.8554 10.6079 12.6598ZM10.6079 15.4465C10.6079 15.251 10.6812 15.0798 10.8279 14.9332C10.9745 14.7865 11.1456 14.7132 11.3412 14.7132H19.5545C19.7501 14.7132 19.9212 14.7865 20.0679 14.9332C20.2145 15.0798 20.2879 15.251 20.2879 15.4465C20.2879 15.6421 20.2145 15.801 20.0679 15.9232C19.9212 16.0454 19.7501 16.1065 19.5545 16.1065H11.3412C11.1456 16.1065 10.9745 16.0454 10.8279 15.9232C10.6812 15.801 10.6079 15.6421 10.6079 15.4465ZM10.6079 18.1598C10.6079 17.9643 10.6812 17.8054 10.8279 17.6832C10.9745 17.561 11.1456 17.4998 11.3412 17.4998H19.5545C19.7501 17.4998 19.9212 17.561 20.0679 17.6832C20.2145 17.8054 20.2879 17.9643 20.2879 18.1598C20.2879 18.3554 20.2145 18.5265 20.0679 18.6732C19.9212 18.8198 19.7501 18.8932 19.5545 18.8932H11.3412C11.1456 18.8932 10.9745 18.8198 10.8279 18.6732C10.6812 18.5265 10.6079 18.3554 10.6079 18.1598ZM10.6079 20.9465C10.6079 20.751 10.6812 20.5798 10.8279 20.4332C10.9745 20.2865 11.1456 20.2132 11.3412 20.2132H19.5545C19.7501 20.2621 19.9212 20.3476 20.0679 20.4698C20.2145 20.5921 20.2879 20.751 20.2879 20.9465C20.2879 21.1421 20.2145 21.301 20.0679 21.4232C19.9212 21.5454 19.7501 21.6065 19.5545 21.6065H11.3412C11.1456 21.6065 10.9745 21.5454 10.8279 21.4232C10.6812 21.301 10.6079 21.1421 10.6079 20.9465ZM21.6079 12.6598C21.6079 12.4643 21.6812 12.3054 21.8279 12.1832C21.9745 12.061 22.1456 11.9998 22.3412 11.9998H23.6612C23.8568 11.9998 24.0279 12.061 24.1745 12.1832C24.3212 12.3054 24.3945 12.4643 24.3945 12.6598C24.3945 12.8554 24.3212 13.0265 24.1745 13.1732C24.0279 13.3198 23.8568 13.3932 23.6612 13.3932H22.3412C22.1456 13.3932 21.9745 13.3198 21.8279 13.1732C21.6812 13.0265 21.6079 12.8554 21.6079 12.6598ZM21.6079 15.4465C21.6079 15.251 21.6812 15.0798 21.8279 14.9332C21.9745 14.7865 22.1456 14.7132 22.3412 14.7132H23.6612C23.8568 14.7132 24.0279 14.7865 24.1745 14.9332C24.3212 15.0798 24.3945 15.251 24.3945 15.4465C24.3945 15.6421 24.3212 15.801 24.1745 15.9232C24.0279 16.0454 23.8568 16.1065 23.6612 16.1065H22.3412C22.1456 16.1065 21.9745 16.0454 21.8279 15.9232C21.6812 15.801 21.6079 15.6421 21.6079 15.4465ZM21.6079 18.1598C21.6079 17.9643 21.6812 17.8054 21.8279 17.6832C21.9745 17.561 22.1456 17.4998 22.3412 17.4998H23.6612C23.8568 17.4998 24.0279 17.561 24.1745 17.6832C24.3212 17.8054 24.3945 17.9643 24.3945 18.1598C24.3945 18.3554 24.3212 18.5265 24.1745 18.6732C24.0279 18.8198 23.8568 18.8932 23.6612 18.8932H22.3412C22.1456 18.8932 21.9745 18.8198 21.8279 18.6732C21.6812 18.5265 21.6079 18.3554 21.6079 18.1598ZM21.6079 20.9465C21.6079 20.751 21.6812 20.5798 21.8279 20.4332C21.9745 20.2865 22.1456 20.2132 22.3412 20.2132H23.6612C23.8568 20.2621 24.0279 20.3476 24.1745 20.4698C24.3212 20.5921 24.3945 20.751 24.3945 20.9465C24.3945 21.1421 24.3212 21.301 24.1745 21.4232C24.0279 21.5454 23.8568 21.6065 23.6612 21.6065H22.3412C22.1456 21.6065 21.9745 21.5454 21.8279 21.4232C21.6812 21.301 21.6079 21.1421 21.6079 20.9465Z" fill="black"/>
</svg>
